<?xml version="1.0" encoding="UTF-8"?>
<svg xmlns="http://www.w3.org/2000/svg" xmlns:xlink="http://www.w3.org/1999/xlink" width="256px" height="67px" viewBox="0 0 257 67" version="1.1">
<g id="surface1">
<path style=" stroke:none;fill-rule:nonzero;fill:rgb(49.803922%,49.803922%,100%);fill-opacity:1;" d="M 48.574219 3.679688 C 55.089844 12.902344 82.605469 48.648438 63.84375 56.039062 C 55.109375 60.0625 15.273438 53.683594 15.859375 54.722656 C 13.011719 59.414062 10.734375 63.183594 10.734375 63.183594 C 10.734375 63.183594 41.351562 64.566406 65.160156 61.367188 C 99.042969 56.816406 58.199219 13.449219 48.574219 3.679688 Z M 48.574219 3.679688 "/>
<path style=" stroke:none;fill-rule:nonzero;fill:rgb(100%,49.803922%,49.803922%);fill-opacity:1;" d="M 48.5 3.65625 C 46.324219 3.957031 6.46875 52.960938 6.46875 52.960938 C 6.46875 52.960938 9.332031 53.773438 15.859375 54.722656 C 17.976562 53.070312 47.671875 2.890625 48.574219 3.679688 C 48.558594 3.660156 48.53125 3.652344 48.5 3.65625 Z M 48.5 3.65625 "/>
<path style=" stroke:none;fill-rule:nonzero;fill:rgb(49.803922%,24.705882%,74.901961%);fill-opacity:1;" d="M 48.539062 3.664062 C 47.167969 3.4375 15.859375 54.722656 15.859375 54.722656 C 15.859375 54.722656 44.28125 57.726562 55.9375 57.527344 C 88.933594 56.96875 56.1875 13.769531 48.574219 3.679688 C 48.5625 3.667969 48.550781 3.664062 48.539062 3.664062 Z M 48.539062 3.664062 "/>
<path style=" stroke:none;fill-rule:nonzero;fill:rgb(100%,100%,100%);fill-opacity:1;" d="M 186.808594 24.121094 C 184.722656 24.121094 183.035156 25.804688 183.035156 27.863281 L 183.035156 47.679688 C 183.078125 49.699219 184.753906 51.375 186.808594 51.375 L 188.851562 51.375 C 190.851562 51.292969 192.453125 49.6875 192.496094 47.679688 L 192.496094 27.863281 C 192.496094 25.84375 190.859375 24.207031 188.851562 24.121094 Z M 131.425781 24.378906 L 125.847656 24.378906 L 125.847656 51.117188 L 131.425781 51.117188 C 133.472656 51.117188 135.121094 49.46875 135.160156 47.421875 L 135.160156 28.074219 C 135.121094 26.027344 133.472656 24.378906 131.425781 24.378906 Z M 150.753906 24.378906 L 143.152344 24.378906 C 142.480469 24.378906 141.941406 24.902344 141.882812 25.535156 L 141.882812 51.117188 L 148.230469 51.117188 C 149.210938 51.117188 149.816406 50.636719 150.070312 50.179688 L 150.078125 50.164062 C 150.226562 49.867188 150.644531 48.882812 150.933594 48.226562 L 151.222656 47.578125 L 145.453125 47.578125 L 145.453125 39.078125 C 145.453125 39.015625 145.558594 38.910156 145.617188 38.910156 L 146.722656 38.910156 C 147.703125 38.910156 148.28125 38.402344 148.523438 37.96875 L 148.53125 37.953125 C 148.609375 37.796875 148.738281 37.496094 148.898438 37.117188 C 149.058594 36.738281 149.246094 36.304688 149.390625 35.980469 L 149.675781 35.332031 L 145.453125 35.332031 L 145.453125 28.121094 C 145.453125 27.96875 145.464844 27.953125 145.617188 27.953125 L 147.753906 27.953125 C 148.742188 27.953125 149.351562 27.441406 149.570312 26.949219 Z M 98.699219 24.378906 C 98.027344 24.378906 97.488281 24.90625 97.429688 25.535156 L 97.429688 51.117188 L 103.777344 51.117188 C 104.757812 51.117188 105.363281 50.636719 105.613281 50.179688 L 105.621094 50.171875 L 105.625 50.164062 C 105.769531 49.867188 106.1875 48.882812 106.480469 48.226562 L 106.769531 47.578125 L 100.996094 47.578125 L 100.996094 39.078125 C 100.996094 39.019531 101.105469 38.910156 101.164062 38.910156 L 102.265625 38.910156 C 103.246094 38.910156 103.828125 38.40625 104.070312 37.972656 L 104.074219 37.964844 L 104.078125 37.953125 C 104.15625 37.796875 104.28125 37.496094 104.441406 37.117188 C 104.605469 36.738281 104.789062 36.308594 104.933594 35.980469 L 105.21875 35.332031 L 100.996094 35.332031 L 100.996094 28.121094 C 100.996094 27.96875 101.011719 27.953125 101.164062 27.953125 L 103.296875 27.953125 C 104.289062 27.953125 104.894531 27.441406 105.113281 26.949219 L 105.117188 26.949219 L 106.300781 24.378906 Z M 110.996094 24.378906 L 110.996094 51.117188 L 114.566406 51.117188 L 114.566406 40.421875 L 116.492188 49.097656 C 116.546875 49.347656 116.632812 49.835938 116.953125 50.289062 C 117.269531 50.738281 117.867188 51.117188 118.707031 51.117188 L 120.378906 51.117188 L 120.378906 24.378906 L 116.808594 24.378906 L 116.808594 35.117188 L 115 26.1875 C 114.921875 25.796875 114.800781 25.328125 114.429688 24.957031 C 114.058594 24.582031 113.480469 24.378906 112.671875 24.378906 Z M 157.796875 24.378906 L 157.738281 24.773438 L 153.757812 51.117188 L 157.601562 51.117188 L 159.515625 36.4375 L 161.433594 51.117188 L 165.28125 51.117188 L 161.480469 26.171875 L 161.480469 26.167969 C 161.421875 25.804688 161.351562 25.378906 161.066406 25 C 160.785156 24.625 160.277344 24.378906 159.628906 24.378906 Z M 167.429688 24.378906 L 167.511719 24.910156 L 171.191406 48.921875 L 171.191406 48.925781 C 171.207031 49.007812 171.277344 49.542969 171.546875 50.054688 C 171.820312 50.566406 172.382812 51.117188 173.226562 51.117188 L 174.949219 51.117188 L 179.027344 24.378906 L 175.445312 24.378906 L 173.226562 38.96875 L 171.21875 25.761719 L 171.214844 25.757812 C 171.042969 24.765625 170.417969 24.378906 169.988281 24.378906 Z M 199.125 24.378906 C 198.46875 24.378906 197.953125 24.90625 197.894531 25.535156 L 197.894531 47.632812 C 197.894531 49.691406 199.59375 51.265625 201.628906 51.265625 L 204.113281 51.265625 L 204.113281 51.132812 C 205.859375 50.878906 207.277344 49.488281 207.277344 47.632812 L 207.277344 24.378906 L 203.707031 24.378906 L 203.707031 47.152344 C 203.707031 47.679688 203.292969 48.09375 202.769531 48.09375 L 202.363281 48.09375 C 201.839844 48.09375 201.460938 47.695312 201.460938 47.152344 L 201.460938 24.378906 Z M 212.859375 24.378906 L 212.859375 51.117188 L 216.425781 51.117188 L 216.425781 40.015625 L 217.367188 40.015625 C 217.628906 40.015625 217.832031 40.085938 217.980469 40.238281 C 218.132812 40.390625 218.269531 40.667969 218.269531 41.214844 L 218.269531 51.117188 L 221.839844 51.117188 L 221.839844 40.789062 C 221.839844 40.789062 221.859375 40.261719 221.738281 39.65625 C 221.648438 39.226562 221.421875 38.761719 221.074219 38.371094 C 221.175781 38.273438 221.339844 38.230469 221.410156 38.117188 C 221.597656 37.816406 221.691406 37.492188 221.75 37.1875 C 221.871094 36.578125 221.835938 36.027344 221.835938 36.027344 L 221.835938 28.085938 C 221.835938 26.027344 220.152344 24.378906 218.136719 24.378906 Z M 187.566406 27.367188 L 187.949219 27.367188 C 188.476562 27.367188 188.890625 27.769531 188.890625 28.34375 L 188.890625 47.152344 C 188.890625 47.726562 188.472656 48.128906 187.949219 48.128906 L 187.566406 48.128906 C 187.03125 48.105469 186.605469 47.679688 186.605469 47.152344 L 186.605469 28.34375 C 186.605469 27.816406 187.03125 27.390625 187.566406 27.367188 Z M 216.425781 27.769531 L 217.367188 27.769531 C 217.636719 27.769531 217.867188 27.84375 218.015625 27.96875 C 218.160156 28.09375 218.269531 28.265625 218.269531 28.640625 L 218.269531 35.570312 C 218.269531 36.074219 218.144531 36.285156 218.007812 36.40625 C 217.871094 36.527344 217.652344 36.585938 217.367188 36.585938 L 216.425781 36.585938 Z M 129.417969 27.957031 L 130.691406 27.957031 C 130.980469 27.957031 131.222656 28.03125 131.375 28.15625 C 131.523438 28.28125 131.628906 28.449219 131.628906 28.824219 L 131.628906 46.671875 C 131.628906 47.070312 131.519531 47.25 131.371094 47.375 C 131.21875 47.503906 130.980469 47.578125 130.691406 47.578125 L 129.417969 47.578125 Z M 129.417969 27.957031 "/>
<path style=" stroke:none;fill-rule:nonzero;fill:rgb(49.803922%,49.803922%,100%);fill-opacity:1;" d="M 230.746094 24.121094 C 228.660156 24.121094 226.972656 25.804688 226.972656 27.863281 L 226.972656 47.679688 C 227.015625 49.699219 228.691406 51.375 230.746094 51.375 L 232.789062 51.375 C 234.789062 51.292969 236.390625 49.6875 236.429688 47.679688 L 236.429688 27.863281 C 236.429688 25.84375 234.792969 24.207031 232.789062 24.121094 Z M 245.75 24.121094 C 243.636719 24.121094 241.976562 25.953125 241.976562 28.011719 L 241.976562 30.636719 C 241.976562 30.636719 241.871094 32.527344 243.210938 34.984375 L 246.375 40.921875 L 246.378906 40.929688 C 246.378906 40.929688 246.648438 41.402344 246.925781 42.0625 C 247.199219 42.71875 247.460938 43.5625 247.460938 44.203125 L 247.460938 47.152344 C 247.460938 47.726562 247.046875 48.128906 246.519531 48.128906 C 245.996094 48.128906 245.582031 47.714844 245.582031 47.191406 L 245.582031 41.980469 L 244.933594 42.269531 C 244.601562 42.417969 244.171875 42.609375 243.796875 42.777344 C 243.421875 42.941406 243.0625 43.089844 243.027344 43.101562 L 242.984375 43.117188 L 242.949219 43.136719 C 242.507812 43.382812 241.976562 43.980469 241.976562 44.976562 L 241.976562 47.644531 C 242.015625 49.652344 243.613281 51.292969 245.621094 51.375 L 247.292969 51.375 C 249.378906 51.375 251.066406 49.691406 251.066406 47.632812 L 251.066406 44.378906 C 251.066406 44.378906 251.171875 42.488281 249.832031 40.035156 L 246.664062 34.058594 L 246.660156 34.050781 C 246.660156 34.050781 246.390625 33.585938 246.117188 32.9375 C 245.84375 32.289062 245.582031 31.457031 245.582031 30.816406 L 245.582031 28.34375 C 245.582031 27.769531 245.996094 27.367188 246.519531 27.367188 C 247.046875 27.367188 247.460938 27.769531 247.460938 28.34375 L 247.460938 32.027344 L 248.097656 31.753906 C 248.8125 31.453125 249.820312 30.988281 250.078125 30.859375 L 250.085938 30.855469 L 250.09375 30.847656 C 250.539062 30.601562 251.066406 30.003906 251.066406 29.007812 L 251.066406 28.011719 C 251.066406 25.992188 249.457031 24.164062 247.414062 24.121094 Z M 231.503906 27.367188 L 231.886719 27.367188 C 232.414062 27.367188 232.828125 27.769531 232.828125 28.34375 L 232.828125 47.152344 C 232.828125 47.726562 232.414062 48.128906 231.886719 48.128906 L 231.503906 48.128906 C 230.96875 48.105469 230.542969 47.679688 230.542969 47.152344 L 230.542969 28.34375 C 230.542969 27.816406 230.96875 27.390625 231.503906 27.367188 Z M 231.503906 27.367188 "/>
</g>
</svg>
